<svg id="레이어_1" data-name="레이어 1" xmlns="http://www.w3.org/2000/svg" viewBox="0 0 471.85 586.36"><defs><style>.cls-1{fill:#4cb34d;}</style></defs><title>GAMEBLA Symbol</title><path class="cls-1" d="M471.85,215.66V549.43c0,28.78-31.51,46.47-56.08,31.48l-390.15-238C-7.6,322.6-8.73,274.76,23.5,253L382.82,9.8c25.5-17.26,54.35-10.78,75,12.1h0c18.57,20.6,14.07,54.71-3,66.05l-290,195a18.88,18.88,0,0,0,.66,31.76L336.81,419.86a13,13,0,0,0,19.74-11.27l-1.16-66.24-62.71-40.28a25.46,25.46,0,0,1,0-42.87L412,182.89C437.89,166.33,471.85,184.93,471.85,215.66Z" transform="translate(0 0)"/></svg>